<svg width="161" height="82" viewBox="0 0 161 82" fill="none" xmlns="http://www.w3.org/2000/svg">
<g clip-path="url(#clip0_220_1157)">
<path d="M99.8132 54.7173H105.33V60.1305H110.847V65.5967H127.765V60.1305H133.286V54.7173H138.803V43.7319H99.8132V54.7173Z" fill="black"/>
<path d="M149.463 10.936H143.946V16.4022H149.463V10.936Z" fill="black"/>
<path d="M143.946 5.46619H132.908V10.936H143.946V5.46619Z" fill="black"/>
<path d="M154.98 16.4022H149.463V27.3346H154.98V16.4022Z" fill="black"/>
<path d="M149.463 65.5967H143.946V71.0665H149.463V65.5967Z" fill="black"/>
<path d="M154.98 54.6643H149.463V65.5967H154.98V54.6643Z" fill="black"/>
<path d="M132.908 76.5302H105.33V81.9988H132.908V76.5302H143.946V71.0664H132.908V76.5302Z" fill="black"/>
<path d="M105.33 0V5.46619H94.2939V10.936H105.33V5.46619H132.908V0H105.33Z" fill="black"/>
<path d="M160.5 27.3346H154.979V54.6643H160.5V27.3346Z" fill="black"/>
<path d="M94.2952 65.5967H88.7759V71.0665H94.2952V65.5967Z" fill="black"/>
<path d="M105.329 71.0664H94.2939V76.5302H105.329V71.0664Z" fill="black"/>
<path d="M88.7759 54.6643H83.259V65.5967H88.7759V54.6643Z" fill="black"/>
<path d="M94.2952 10.936H88.7759V16.4022H94.2952V10.936Z" fill="black"/>
<path d="M88.7759 16.4022H83.259V27.3358H88.7759V16.4022Z" fill="black"/>
<path d="M83.2591 27.3357H77.7422V27.3369H83.2591V27.3357Z" fill="black"/>
<path d="M83.2591 54.6631H77.7422V54.6643H83.2591V54.6631Z" fill="black"/>
<path d="M105.33 21.9045H99.8132V32.8453H105.33V21.9045Z" fill="black"/>
<path d="M138.429 21.9045H132.908V32.8453H138.429V21.9045Z" fill="black"/>
<path d="M22.571 54.7209H28.0879V60.1329H33.606V65.5955H50.5274V60.1329H56.0442V54.7209H61.5611V43.7332H56.0442V54.6655H50.5274V60.1293H33.606V54.6655H28.0879V43.7332H22.571V54.7209Z" fill="black"/>
<path d="M72.2253 10.9348H66.7061V16.401H72.2253V10.9348Z" fill="black"/>
<path d="M66.7049 5.46741H55.6699V10.936H66.7049V5.46741Z" fill="black"/>
<path d="M77.7422 16.401H72.2241V27.337H77.7422V16.401Z" fill="black"/>
<path d="M72.2253 65.599H66.7061V71.0652H72.2253V65.599Z" fill="black"/>
<path d="M77.741 54.6631H72.2241V65.5991H77.741V54.6631Z" fill="black"/>
<path d="M55.6698 76.5314H28.0879V82H55.6698V76.5314H66.7059V71.0652H55.6698V76.5314Z" fill="black"/>
<path d="M28.0879 0V5.46739H17.053V10.9348H28.0879V5.46739H55.6698V0H28.0879Z" fill="black"/>
<path d="M83.2591 27.3369H77.7422V54.663H83.2591V27.3369Z" fill="black"/>
<path d="M17.053 65.599H11.5349V71.0652H17.053V65.599Z" fill="black"/>
<path d="M28.0879 71.0652H17.053V76.5314H28.0879V71.0652Z" fill="black"/>
<path d="M11.5361 54.6631H6.01807V65.5991H11.5361V54.6631Z" fill="black"/>
<path d="M17.053 10.9348H11.5349V16.4034H17.053V10.9348Z" fill="black"/>
<path d="M11.5361 16.4033H6.01807V27.3369H11.5361V16.4033Z" fill="black"/>
<path d="M6.01808 27.3369H0.5V54.663H6.01808V27.3369Z" fill="black"/>
<path d="M28.0891 21.9056H22.571V32.8452H28.0891V21.9056Z" fill="black"/>
<path d="M61.1868 21.9056H55.6699V32.8452H61.1868V21.9056Z" fill="black"/>
</g>
<defs>
<clipPath id="clip0_220_1157">
<rect width="160" height="82" fill="white" transform="translate(0.5)"/>
</clipPath>
</defs>
</svg>
