<svg width="40" height="40" viewBox="0 0 40 40" fill="none" xmlns="http://www.w3.org/2000/svg">
<g clip-path="url(#clip0_496_1939)">
<path d="M37.2872 5.71376V2.85505H34.5709V0H26.4291V2.85505H23.7128V5.71376H21V14.2862H23.7128V17.1413H26.4291V20H34.5709V17.1413H37.2872V14.2862H40V5.71376H37.2872ZM26.4291 5.71376H29.1419V8.56881H26.4291V5.71376ZM34.5709 14.2862H31.8581V17.1413H29.1419V14.2862H26.4291V11.4275H29.1419V14.2862H31.8581V11.4275H34.5709V14.2862ZM34.5709 8.56881H31.8581V5.71376H34.5709V8.56881Z" fill="#262424"/>
<path d="M17.1413 25.7148V22.8556H14.2862V20H5.71376V22.8556H2.85871V25.7148H0V34.2852H2.85871V37.1444H5.71376V40H14.2862V37.1444H17.1413V34.2852H20V25.7148H17.1413ZM11.4275 34.2852V31.4296H8.57247V34.2852H5.71376V31.4296H8.57247V28.5704H5.71376V25.7148H8.57247V28.5704H11.4275V25.7148H14.2862V28.5704H11.4275V31.4296H14.2862V34.2852H11.4275Z" fill="#262424"/>
</g>
<defs>
<clipPath id="clip0_496_1939">
<rect width="40" height="40" fill="white"/>
</clipPath>
</defs>
</svg>
