<svg width="36" height="41" viewBox="0 0 36 41" fill="none" xmlns="http://www.w3.org/2000/svg">
<g clip-path="url(#clip0_496_1861)">
<path d="M26.7477 4.95532H24.5625V7.17006H26.7477V4.95532Z" fill="#262424"/>
<path d="M17.9986 9.3875H20.1866V7.1699H22.3746V4.95516H24.5627V2.73755H22.3746H20.1866V4.95516H17.9986H15.8105V7.1699H17.9986V9.3875Z" fill="#262424"/>
<path d="M17.9986 9.3877H15.8105V11.6053H17.9986V9.3877Z" fill="#262424"/>
<path d="M15.8107 11.6052H13.6227H11.4375V13.8228H13.6227H15.8107V11.6052Z" fill="#262424"/>
<path d="M13.6227 9.38753H15.8107V7.16992H13.6227H11.4375V9.38753H13.6227Z" fill="#262424"/>
<path d="M2.6852 16.0404V13.8228V11.6052V9.38762V7.17001V4.95527H4.87323H7.06126V2.73766H4.87323H2.6852V0.5H0.5V2.73766V4.95527V7.17001V9.38762V11.6052V13.8228V16.0404V18.2552V20.4728V22.6904V24.908V27.1256V29.3432V31.5579V33.7756V35.9932V38.2108V40.5H2.6852V38.2108V35.9932V33.7756V31.5579V29.3432V27.1256V24.908V22.6904V20.4728V18.2552H4.87323H7.06126V16.0404H4.87323H2.6852Z" fill="#262424"/>
<path d="M7.06104 13.8228V16.0404H9.24907H11.4371V13.8228H9.24907H7.06104Z" fill="#262424"/>
<path d="M9.24907 7.17006H11.4371V4.95532H9.24907H7.06104V7.17006H9.24907Z" fill="#262424"/>
<path d="M17.9986 31.558V29.3433V27.1257V24.9081V22.6905V20.4729H20.1866H22.3746V18.2553H20.1866H17.9986V16.0405H15.8105V18.2553V20.4729V22.6905V24.9081V27.1257V29.3433V31.558V33.7756V35.9933V38.2109V40.5001H17.9986V38.2109V35.9933V33.7756H20.1866H22.3746V31.558H20.1866H17.9986Z" fill="#262424"/>
<path d="M35.5 22.6904H33.312V24.908H35.5V22.6904Z" fill="#262424"/>
<path d="M26.748 27.1255V29.3431H28.9361H31.1241V27.1255H28.9361H26.748Z" fill="#262424"/>
<path d="M22.3745 29.3433V31.558H24.5625H26.7477V29.3433H24.5625H22.3745Z" fill="#262424"/>
<path d="M33.3121 24.908H31.124V27.1256H33.3121V24.908Z" fill="#262424"/>
<path d="M33.3121 20.4729H31.124V22.6905H33.3121V20.4729Z" fill="#262424"/>
<path d="M28.9361 24.908H31.1241V22.6904H28.9361H26.748V24.908H28.9361Z" fill="#262424"/>
<path d="M24.5625 22.6905H26.7477V20.4729H24.5625H22.3745V22.6905H24.5625Z" fill="#262424"/>
</g>
<defs>
<clipPath id="clip0_496_1861">
<rect width="35" height="40" fill="white" transform="translate(0.5 0.5)"/>
</clipPath>
</defs>
</svg>
