<svg width="40" height="40" viewBox="0 0 40 40" fill="none" xmlns="http://www.w3.org/2000/svg">
<g clip-path="url(#clip0_496_1842)">
<path d="M37.7137 6.67001V2.23766H33.2868V0H22.2151V2.23766H17.7853V6.67001H15.5704V17.7552H17.7853V19.9728H15.5704V22.1904H13.3555V24.408H15.5704V26.6256H17.7853V24.408H20.0002V22.1904H22.2151V24.408H33.2868V22.1904H37.7137V17.7552H40.0002V6.67001H37.7137ZM37.7137 11.1052V15.5404H35.5017V19.9728H31.0719V22.1904H24.43V19.9728H20.0002V15.5404H17.7853V8.88762H20.0002V4.45527H24.43V2.23766H31.0719V4.45527H35.5017V8.88762H37.7137V11.1052Z" fill="#262424"/>
<path d="M28.8569 6.66992V8.88753H31.0718V11.1051H33.2868V8.88753V6.66992H31.0718H28.8569Z" fill="#262424"/>
<path d="M15.5704 26.6255H13.3555V28.8431H15.5704V26.6255Z" fill="#262424"/>
<path d="M13.3551 28.8433H11.1431V31.058H13.3551V28.8433Z" fill="#262424"/>
<path d="M13.3551 24.408H11.1431V26.6256H13.3551V24.408Z" fill="#262424"/>
<path d="M11.1431 31.0579H8.92822V33.2755H11.1431V31.0579Z" fill="#262424"/>
<path d="M11.1431 26.6255H8.92822V28.8431H11.1431V26.6255Z" fill="#262424"/>
<path d="M8.92829 33.2756H6.71338V35.4932H8.92829V33.2756Z" fill="#262424"/>
<path d="M8.92829 28.8433H6.71338V31.058H8.92829V28.8433Z" fill="#262424"/>
<path d="M6.71344 35.4932H4.49854V37.7108H6.71344V35.4932Z" fill="#262424"/>
<path d="M6.71344 31.0579H4.49854V33.2755H6.71344V31.0579Z" fill="#262424"/>
<path d="M4.4986 33.2756H2.28369V35.4932H4.4986V33.2756Z" fill="#262424"/>
<path d="M2.28359 35.4932H0V37.7108V40H2.28359H4.4985V37.7108H2.28359V35.4932Z" fill="#262424"/>
</g>
<defs>
<clipPath id="clip0_496_1842">
<rect width="40" height="40" fill="white"/>
</clipPath>
</defs>
</svg>
