<svg width="40" height="40" viewBox="0 0 40 40" fill="none" xmlns="http://www.w3.org/2000/svg">
<g clip-path="url(#clip0_496_1883)">
<path d="M4.44565 22.219H2.22852V24.4423H4.44565V22.219Z" fill="black"/>
<path d="M6.66866 19.9956H4.4458V22.2189H6.66866V19.9956Z" fill="black"/>
<path d="M8.88559 17.781H6.66846V19.9958H8.88559V17.781Z" fill="black"/>
<path d="M11.1058 15.5576H8.88867V17.781H11.1058V15.5576Z" fill="black"/>
<path d="M13.3283 13.3315H11.1055V15.5549H13.3283V13.3315Z" fill="black"/>
<path d="M15.5487 11.1082H13.3315V13.3315H15.5487V11.1082Z" fill="black"/>
<path d="M17.7769 8.88477H15.5483V11.1081H17.7769V8.88477Z" fill="black"/>
<path d="M19.9945 6.66138H17.7773V8.88471H19.9945V6.66138Z" fill="black"/>
<path d="M22.217 4.44678H19.9941V6.66153H22.217V4.44678Z" fill="black"/>
<path d="M24.4344 2.21484H22.2173V4.44962H24.4344V2.21484Z" fill="black"/>
<path d="M26.6599 0H24.437V2.21475H26.6599V0Z" fill="black"/>
<path d="M33.3258 4.44667H35.5487V6.66142H37.7658V4.44667H35.5487V2.21475H33.3344V0H28.8887V2.21475H33.3258V4.44667Z" fill="black"/>
<path d="M39.9999 6.6814H37.7656V11.1109H39.9999V6.6814Z" fill="black"/>
<path d="M37.7655 11.1082H35.5483V13.3315H37.7655V15.5577H39.9998V13.3315H37.7655V11.1082Z" fill="black"/>
<path d="M17.7769 35.5505H15.5483V37.7739H17.7769V35.5505Z" fill="black"/>
<path d="M19.9945 33.3271H17.7773V35.5505H19.9945V33.3271Z" fill="black"/>
<path d="M22.217 31.1123H19.9941V33.3271H22.217V31.1123Z" fill="black"/>
<path d="M24.4344 28.8892H22.2173V31.1125H24.4344V28.8892Z" fill="black"/>
<path d="M26.6599 26.6658H24.437V28.8891H26.6599V26.6658Z" fill="black"/>
<path d="M28.8887 24.4424H26.6602V26.6657H28.8887V24.4424Z" fill="black"/>
<path d="M31.1058 22.219H28.8887V24.4423H31.1058V22.219Z" fill="black"/>
<path d="M33.3226 19.9956H31.1055V22.2189H33.3226V19.9956Z" fill="black"/>
<path d="M35.5485 17.781H33.3257V19.9958H35.5485V17.781Z" fill="black"/>
<path d="M37.7655 15.5576H35.5483V17.781H37.7655V15.5576Z" fill="black"/>
<path d="M8.88559 26.6658H6.66846V28.8891H8.88559V26.6658Z" fill="black"/>
<path d="M11.1058 24.4424H8.88867V26.6657H11.1058V24.4424Z" fill="black"/>
<path d="M13.3283 22.219H11.1055V24.4423H13.3283V22.219Z" fill="black"/>
<path d="M15.5487 19.9956H13.3315V22.2189H15.5487V19.9956Z" fill="black"/>
<path d="M17.7769 17.781H15.5483V19.9958H17.7769V17.781Z" fill="black"/>
<path d="M19.9945 15.5576H17.7773V17.781H19.9945V15.5576Z" fill="black"/>
<path d="M22.217 13.3315H19.9941V15.5549H22.217V13.3315Z" fill="black"/>
<path d="M24.4344 11.1082H22.2173V13.3315H24.4344V11.1082Z" fill="black"/>
<path d="M26.6599 8.88477H24.437V11.1081H26.6599V8.88477Z" fill="black"/>
<path d="M28.8887 6.66138H26.6602V8.88471H28.8887V6.66138Z" fill="black"/>
<path d="M31.1059 4.44668H28.8945V2.23193H26.6802V4.45813H28.8887V6.66144H31.1059V4.44668Z" fill="black"/>
<path d="M13.3283 31.1123H11.1055V33.3271H13.3283V31.1123Z" fill="black"/>
<path d="M15.5487 28.8892H13.3315V31.1125H15.5487V28.8892Z" fill="black"/>
<path d="M17.7769 26.6658H15.5483V28.8891H17.7769V26.6658Z" fill="black"/>
<path d="M19.9945 24.4424H17.7773V26.6657H19.9945V24.4424Z" fill="black"/>
<path d="M22.217 22.219H19.9941V24.4423H22.217V22.219Z" fill="black"/>
<path d="M24.4344 19.9956H22.2173V22.2189H24.4344V19.9956Z" fill="black"/>
<path d="M26.6599 17.781H24.437V19.9958H26.6599V17.781Z" fill="black"/>
<path d="M28.8887 15.5576H26.6602V17.781H28.8887V15.5576Z" fill="black"/>
<path d="M31.1058 13.3315H28.8887V15.5549H31.1058V13.3315Z" fill="black"/>
<path d="M33.3226 11.1082H31.1055V13.3315H33.3226V11.1082Z" fill="black"/>
<path d="M35.5486 8.8847H33.3343V6.6814H31.1172V8.89615H33.3257V11.108H35.5486V8.8847Z" fill="black"/>
<path d="M6.66866 28.8892H4.4458V31.1125H6.66866V28.8892Z" fill="black"/>
<path d="M8.88559 31.1123H6.66846V33.3271H8.88559V31.1123Z" fill="black"/>
<path d="M11.1058 33.3271H8.88867V35.5505H11.1058V33.3271Z" fill="black"/>
<path d="M13.3314 35.5505H11.1057V37.7738H4.44572V35.5505H2.22858V28.8891H4.44572V26.6657H2.22858V24.4424H0V40H15.5486V37.7738H13.3314V35.5505Z" fill="black"/>
</g>
<defs>
<clipPath id="clip0_496_1883">
<rect width="40" height="40" fill="white"/>
</clipPath>
</defs>
</svg>
