<?xml version="1.0" encoding="UTF-8"?>
<svg id="Layer_2" xmlns="http://www.w3.org/2000/svg" version="1.1" viewBox="0 0 1000 1000">
  <!-- Generator: Adobe Illustrator 30.0.0, SVG Export Plug-In . SVG Version: 2.1.1 Build 123)  -->
  <defs>
    <style>
      .st0 {
        fill: #fff;
      }
    </style>
  </defs>
  <g id="dark-icon">
    <g id="Warstwa_1">
      <g>
        <rect class="st0" x="625" y="500" width="125" height="125"/>
        <rect class="st0" x="250" y="500" width="125" height="125"/>
        <polygon class="st0" points="750 125 625 125 625 0 500 0 375 0 375 125 250 125 125 125 125 250 125 375 250 375 250 250 375 250 375 375 375 500 500 500 625 500 625 375 625 250 750 250 750 375 875 375 875 250 875 125 750 125"/>
        <polygon class="st0" points="625 750 500 750 375 750 250 750 250 625 125 625 125 750 125 875 250 875 375 875 375 1000 500 1000 625 1000 625 875 750 875 875 875 875 750 875 625 750 625 750 750 625 750"/>
      </g>
    </g>
  </g>
</svg>