<?xml version="1.0" encoding="UTF-8"?>
<svg id="Layer_2" data-name="Layer 2" xmlns="http://www.w3.org/2000/svg" viewBox="0 0 115.38 153.85">
  <defs>
    <style>
      .cls-1 {
        fill: #fff;
      }
    </style>
  </defs>
  <g id="Warstwa_1" data-name="Warstwa 1">
    <g>
      <rect class="cls-1" x="76.92" y="76.92" width="19.23" height="19.23"/>
      <rect class="cls-1" x="19.23" y="76.92" width="19.23" height="19.23"/>
      <polygon class="cls-1" points="96.15 19.23 76.92 19.23 76.92 0 57.69 0 38.46 0 38.46 19.23 19.23 19.23 0 19.23 0 38.46 0 57.69 19.23 57.69 19.23 38.46 38.46 38.46 38.46 57.69 38.46 76.92 57.69 76.92 76.92 76.92 76.92 57.69 76.92 38.46 96.15 38.46 96.15 57.69 115.38 57.69 115.38 38.46 115.38 19.23 96.15 19.23"/>
      <polygon class="cls-1" points="76.92 115.39 57.69 115.39 38.46 115.39 19.23 115.39 19.23 96.15 0 96.15 0 115.39 0 134.62 19.23 134.62 38.46 134.62 38.46 153.85 57.69 153.85 76.92 153.85 76.92 134.62 96.15 134.62 115.38 134.62 115.38 115.39 115.38 96.15 96.15 96.15 96.15 115.39 76.92 115.39"/>
    </g>
  </g>
</svg>