<?xml version="1.0" encoding="UTF-8"?>
<svg id="Layer_2" data-name="Layer 2" xmlns="http://www.w3.org/2000/svg" viewBox="0 0 115.39 153.85">
  <defs>
    <style>
      .cls-1 {
        fill: #fff;
      }
    </style>
  </defs>
  <g id="Warstwa_1" data-name="Warstwa 1">
    <g>
      <polygon class="cls-1" points="38.47 134.62 38.47 153.85 57.7 153.85 76.93 153.85 76.93 134.62 57.7 134.62 38.47 134.62"/>
      <polygon class="cls-1" points="76.93 19.23 76.93 0 57.7 0 38.47 0 38.47 19.23 57.7 19.23 76.93 19.23"/>
      <polygon class="cls-1" points="76.93 115.39 76.93 134.62 96.16 134.62 115.39 134.62 115.39 115.39 115.39 96.15 96.16 96.15 96.16 115.39 76.93 115.39"/>
      <polygon class="cls-1" points="19.23 115.39 19.23 96.15 0 96.15 0 115.39 0 134.62 19.23 134.62 38.47 134.62 38.47 115.39 19.23 115.39"/>
      <polygon class="cls-1" points="38.47 38.46 38.47 19.23 19.23 19.23 0 19.23 0 38.46 0 57.69 19.23 57.69 19.23 38.46 38.47 38.46"/>
      <polygon class="cls-1" points="76.93 19.23 76.93 38.46 96.16 38.46 96.16 57.69 115.39 57.69 115.39 38.46 115.39 19.23 96.16 19.23 76.93 19.23"/>
      <polygon class="cls-1" points="57.7 96.15 57.7 76.92 38.47 76.92 38.47 57.69 19.23 57.69 19.23 76.92 19.23 96.15 38.47 96.15 57.7 96.15"/>
      <polygon class="cls-1" points="57.7 57.69 57.7 76.92 76.93 76.92 76.93 96.15 96.16 96.15 96.16 76.92 96.16 57.69 76.93 57.69 57.7 57.69"/>
    </g>
  </g>
</svg>